<svg xmlns="http://www.w3.org/2000/svg" style="display:none">

  <!-- Navigation -->
  <symbol id="icon-home" viewBox="0 0 24 24" fill="none" stroke="currentColor" stroke-width="2" stroke-linecap="round" stroke-linejoin="round">
    <path d="M3 10.5L12 3L21 10.5V21H15V15H9V21H3V10.5Z"/>
    <path d="M9 3V6"/>
  </symbol>

  <symbol id="icon-search" viewBox="0 0 24 24" fill="none" stroke="currentColor" stroke-width="2" stroke-linecap="round">
    <circle cx="10" cy="10" r="7"/>
    <line x1="15.5" y1="15.5" x2="21" y2="21"/>
  </symbol>

  <symbol id="icon-location" viewBox="0 0 24 24" fill="none" stroke="currentColor" stroke-width="2" stroke-linecap="round" stroke-linejoin="round">
    <path d="M12 2C8.13 2 5 5.13 5 9C5 14.25 12 22 12 22C12 22 19 14.25 19 9C19 5.13 15.87 2 12 2Z"/>
    <circle cx="12" cy="9" r="3" fill="currentColor"/>
  </symbol>

  <symbol id="icon-map" viewBox="0 0 24 24" fill="none" stroke="currentColor" stroke-width="2" stroke-linecap="round" stroke-linejoin="round">
    <path d="M3 5L9 3L15 5L21 3V19L15 21L9 19L3 21V5Z"/>
    <line x1="9" y1="3" x2="9" y2="19"/>
    <line x1="15" y1="5" x2="15" y2="21"/>
  </symbol>

  <symbol id="icon-back" viewBox="0 0 24 24" fill="none" stroke="currentColor" stroke-width="2" stroke-linecap="round" stroke-linejoin="round">
    <line x1="20" y1="12" x2="4" y2="12"/>
    <polyline points="10 6 4 12 10 18"/>
  </symbol>

  <symbol id="icon-filter" viewBox="0 0 24 24" fill="none" stroke="currentColor" stroke-width="2" stroke-linecap="round">
    <line x1="3" y1="6" x2="21" y2="6"/>
    <line x1="6" y1="12" x2="18" y2="12"/>
    <line x1="9" y1="18" x2="15" y2="18"/>
  </symbol>

  <symbol id="icon-menu" viewBox="0 0 24 24" fill="none" stroke="currentColor" stroke-width="2" stroke-linecap="round">
    <line x1="3" y1="6" x2="21" y2="6"/>
    <line x1="3" y1="12" x2="21" y2="12"/>
    <line x1="3" y1="18" x2="21" y2="18"/>
  </symbol>

  <symbol id="icon-close" viewBox="0 0 24 24" fill="none" stroke="currentColor" stroke-width="2" stroke-linecap="round">
    <line x1="5" y1="5" x2="19" y2="19"/>
    <line x1="19" y1="5" x2="5" y2="19"/>
  </symbol>

  <symbol id="icon-chevron-down" viewBox="0 0 24 24" fill="none" stroke="currentColor" stroke-width="2" stroke-linecap="round" stroke-linejoin="round">
    <polyline points="6 9 12 15 18 9"/>
  </symbol>

  <symbol id="icon-chevron-right" viewBox="0 0 24 24" fill="none" stroke="currentColor" stroke-width="2" stroke-linecap="round" stroke-linejoin="round">
    <polyline points="9 6 15 12 9 18"/>
  </symbol>

  <!-- Property types -->
  <symbol id="icon-house" viewBox="0 0 24 24" fill="none" stroke="currentColor" stroke-width="2" stroke-linecap="round" stroke-linejoin="round">
    <path d="M2 12L12 3L22 12V22H16V16H8V22H2V12Z"/>
  </symbol>

  <symbol id="icon-apartment" viewBox="0 0 24 24" fill="none" stroke="currentColor" stroke-width="2" stroke-linecap="round" stroke-linejoin="round">
    <rect x="4" y="2" width="16" height="20" rx="1"/>
    <line x1="4" y1="9" x2="20" y2="9"/>
    <line x1="4" y1="15" x2="20" y2="15"/>
    <rect x="9" y="17" width="6" height="5" rx="1"/>
    <rect x="6" y="4" width="4" height="3" rx="0.5"/>
    <rect x="14" y="4" width="4" height="3" rx="0.5"/>
    <rect x="6" y="11" width="4" height="3" rx="0.5"/>
    <rect x="14" y="11" width="4" height="3" rx="0.5"/>
  </symbol>

  <symbol id="icon-bungalow" viewBox="0 0 24 24" fill="none" stroke="currentColor" stroke-width="2" stroke-linecap="round" stroke-linejoin="round">
    <path d="M1 12L12 4L23 12V22H1V12Z"/>
    <rect x="9" y="15" width="6" height="7" rx="1"/>
    <line x1="1" y1="12" x2="23" y2="12"/>
  </symbol>

  <symbol id="icon-site" viewBox="0 0 24 24" fill="none" stroke="currentColor" stroke-width="2" stroke-linecap="round" stroke-linejoin="round">
    <rect x="2" y="2" width="20" height="20" rx="1"/>
    <line x1="2" y1="8" x2="22" y2="8"/>
    <line x1="8" y1="8" x2="8" y2="22"/>
    <path d="M12 14L14 12L16 14L18 12"/>
    <path d="M10 18L12 16L14 18"/>
  </symbol>

  <!-- Property specs -->
  <symbol id="icon-bed" viewBox="0 0 24 24" fill="none" stroke="currentColor" stroke-width="2" stroke-linecap="round" stroke-linejoin="round">
    <path d="M2 14V8C2 8 2 4 6 4H18C22 4 22 8 22 8V14"/>
    <rect x="1" y="14" width="22" height="6" rx="2"/>
    <line x1="2" y1="14" x2="22" y2="14"/>
    <rect x="4" y="7" width="6" height="7" rx="1"/>
    <rect x="14" y="7" width="6" height="7" rx="1"/>
  </symbol>

  <symbol id="icon-bath" viewBox="0 0 24 24" fill="none" stroke="currentColor" stroke-width="2" stroke-linecap="round" stroke-linejoin="round">
    <path d="M4 12H20C20 12 20.5 20 12 20C3.5 20 4 12 4 12Z"/>
    <line x1="4" y1="16" x2="4" y2="20"/>
    <line x1="20" y1="16" x2="20" y2="20"/>
    <line x1="2" y1="12" x2="22" y2="12"/>
    <path d="M6 12V5C6 3.5 7.5 2 9 2"/>
    <path d="M9 2C9 2 12 2 12 5"/>
  </symbol>

  <symbol id="icon-size" viewBox="0 0 24 24" fill="none" stroke="currentColor" stroke-width="2" stroke-linecap="round" stroke-linejoin="round">
    <rect x="2" y="2" width="20" height="20" rx="1"/>
    <line x1="2" y1="20" x2="9" y2="13"/>
    <polyline points="6 20 2 20 2 16"/>
    <polyline points="20 6 20 2 16 2"/>
    <line x1="20" y1="2" x2="13" y2="9"/>
  </symbol>

  <symbol id="icon-ber" viewBox="0 0 24 24" fill="none" stroke="currentColor" stroke-width="2" stroke-linecap="round" stroke-linejoin="round">
    <path d="M12 2L15 9H9L12 2Z" fill="currentColor"/>
    <line x1="12" y1="9" x2="12" y2="22"/>
    <line x1="8" y1="14" x2="16" y2="14"/>
    <line x1="6" y1="18" x2="18" y2="18"/>
  </symbol>

  <!-- Actions -->
  <symbol id="icon-heart" viewBox="0 0 24 24" fill="none" stroke="currentColor" stroke-width="2" stroke-linecap="round" stroke-linejoin="round">
    <path d="M12 21C12 21 3 14 3 8C3 5.24 5.24 3 8 3C9.74 3 11.27 3.86 12 5.19C12.73 3.86 14.26 3 16 3C18.76 3 21 5.24 21 8C21 14 12 21 12 21Z"/>
  </symbol>

  <symbol id="icon-heart-filled" viewBox="0 0 24 24" fill="currentColor" stroke="currentColor" stroke-width="2" stroke-linecap="round" stroke-linejoin="round">
    <path d="M12 21C12 21 3 14 3 8C3 5.24 5.24 3 8 3C9.74 3 11.27 3.86 12 5.19C12.73 3.86 14.26 3 16 3C18.76 3 21 5.24 21 8C21 14 12 21 12 21Z"/>
  </symbol>

  <symbol id="icon-share" viewBox="0 0 24 24" fill="none" stroke="currentColor" stroke-width="2" stroke-linecap="round" stroke-linejoin="round">
    <circle cx="18" cy="5" r="3"/>
    <circle cx="6" cy="12" r="3"/>
    <circle cx="18" cy="19" r="3"/>
    <line x1="8.59" y1="13.51" x2="15.42" y2="17.49"/>
    <line x1="15.41" y1="6.51" x2="8.59" y2="10.49"/>
  </symbol>

  <symbol id="icon-message" viewBox="0 0 24 24" fill="none" stroke="currentColor" stroke-width="2" stroke-linecap="round" stroke-linejoin="round">
    <path d="M21 15C21 16.1 20.1 17 19 17H7L3 21V5C3 3.9 3.9 3 5 3H19C20.1 3 21 3.9 21 5V15Z"/>
    <line x1="8" y1="9" x2="16" y2="9"/>
    <line x1="8" y1="13" x2="13" y2="13"/>
  </symbol>

  <symbol id="icon-phone" viewBox="0 0 24 24" fill="none" stroke="currentColor" stroke-width="2" stroke-linecap="round" stroke-linejoin="round">
    <path d="M6 2H10L12 7L9.5 8.5C10.57 10.69 13.31 13.43 15.5 14.5L17 12L22 14V18C22 20.21 20.21 22 18 22C9.16 22 2 14.84 2 6C2 3.79 3.79 2 6 2Z"/>
  </symbol>

  <symbol id="icon-plus" viewBox="0 0 24 24" fill="none" stroke="currentColor" stroke-width="2" stroke-linecap="round">
    <line x1="12" y1="2" x2="12" y2="22"/>
    <line x1="2" y1="12" x2="22" y2="12"/>
  </symbol>

  <symbol id="icon-trash" viewBox="0 0 24 24" fill="none" stroke="currentColor" stroke-width="2" stroke-linecap="round" stroke-linejoin="round">
    <polyline points="3 6 5 6 21 6"/>
    <path d="M19 6V20C19 21 18 22 17 22H7C6 22 5 21 5 20V6"/>
    <path d="M8 6V4C8 3 9 2 10 2H14C15 2 16 3 16 4V6"/>
    <line x1="10" y1="11" x2="10" y2="17"/>
    <line x1="14" y1="11" x2="14" y2="17"/>
  </symbol>

  <symbol id="icon-edit" viewBox="0 0 24 24" fill="none" stroke="currentColor" stroke-width="2" stroke-linecap="round" stroke-linejoin="round">
    <path d="M11 4H4C3 4 2 5 2 6V20C2 21 3 22 4 22H18C19 22 20 21 20 20V13"/>
    <path d="M18.5 2.5C19.33 1.67 20.67 1.67 21.5 2.5C22.33 3.33 22.33 4.67 21.5 5.5L12 15L8 16L9 12L18.5 2.5Z"/>
  </symbol>

  <!-- Dashboard -->
  <symbol id="icon-user" viewBox="0 0 24 24" fill="none" stroke="currentColor" stroke-width="2" stroke-linecap="round" stroke-linejoin="round">
    <circle cx="12" cy="8" r="5"/>
    <path d="M3 21C3 17 7.5 14 12 14C16.5 14 21 17 21 21"/>
  </symbol>

  <symbol id="icon-inbox" viewBox="0 0 24 24" fill="none" stroke="currentColor" stroke-width="2" stroke-linecap="round" stroke-linejoin="round">
    <rect x="2" y="4" width="20" height="16" rx="2"/>
    <polyline points="2 8 12 14 22 8"/>
  </symbol>

  <symbol id="icon-chart" viewBox="0 0 24 24" fill="none" stroke="currentColor" stroke-width="2" stroke-linecap="round" stroke-linejoin="round">
    <line x1="3" y1="21" x2="21" y2="21"/>
    <line x1="3" y1="3" x2="3" y2="21"/>
    <rect x="5" y="13" width="4" height="8" rx="0.5"/>
    <rect x="10" y="9" width="4" height="12" rx="0.5"/>
    <rect x="15" y="5" width="4" height="16" rx="0.5"/>
  </symbol>

  <symbol id="icon-eye" viewBox="0 0 24 24" fill="none" stroke="currentColor" stroke-width="2" stroke-linecap="round" stroke-linejoin="round">
    <path d="M2 12C2 12 5 5 12 5C19 5 22 12 22 12C22 12 19 19 12 19C5 19 2 12 2 12Z"/>
    <circle cx="12" cy="12" r="3"/>
  </symbol>

  <symbol id="icon-settings" viewBox="0 0 24 24" fill="none" stroke="currentColor" stroke-width="2" stroke-linecap="round" stroke-linejoin="round">
    <circle cx="12" cy="12" r="3"/>
    <path d="M19.4 15C19.8 14.1 20 13.1 20 12C20 10.9 19.8 9.9 19.4 9L21 7.4L16.6 3L15 4.6C14.1 4.2 13.1 4 12 4C10.9 4 9.9 4.2 9 4.6L7.4 3L3 7.4L4.6 9C4.2 9.9 4 10.9 4 12C4 13.1 4.2 14.1 4.6 15L3 16.6L7.4 21L9 19.4C9.9 19.8 10.9 20 12 20C13.1 20 14.1 19.8 15 19.4L16.6 21L21 16.6L19.4 15Z"/>
  </symbol>

  <symbol id="icon-signout" viewBox="0 0 24 24" fill="none" stroke="currentColor" stroke-width="2" stroke-linecap="round" stroke-linejoin="round">
    <path d="M9 21H5C4 21 3 20 3 19V5C3 4 4 3 5 3H9"/>
    <polyline points="16 17 21 12 16 7"/>
    <line x1="21" y1="12" x2="9" y2="12"/>
  </symbol>

  <symbol id="icon-bell" viewBox="0 0 24 24" fill="none" stroke="currentColor" stroke-width="2" stroke-linecap="round" stroke-linejoin="round">
    <path d="M12 2C12 2 6 4 6 12V18H18V12C18 4 12 2 12 2Z"/>
    <line x1="6" y1="18" x2="18" y2="18"/>
    <path d="M10 18C10 19.1 10.9 20 12 20C13.1 20 14 19.1 14 18"/>
    <line x1="12" y1="2" x2="12" y2="0"/>
  </symbol>

  <!-- Features -->
  <symbol id="icon-garden" viewBox="0 0 24 24" fill="none" stroke="currentColor" stroke-width="2" stroke-linecap="round" stroke-linejoin="round">
    <line x1="12" y1="22" x2="12" y2="10"/>
    <path d="M12 10C12 10 7 7 6 2C10 4 12 8 12 8"/>
    <path d="M12 10C12 10 17 7 18 2C14 4 12 8 12 8"/>
    <path d="M12 8C12 8 9 4 10 0C12 3 12 6 12 6"/>
    <line x1="8" y1="22" x2="16" y2="22"/>
  </symbol>

  <symbol id="icon-garage" viewBox="0 0 24 24" fill="none" stroke="currentColor" stroke-width="2" stroke-linecap="round" stroke-linejoin="round">
    <path d="M2 11L12 3L22 11V22H2V11Z"/>
    <line x1="2" y1="15" x2="22" y2="15"/>
    <line x1="2" y1="19" x2="22" y2="19"/>
    <line x1="9" y1="11" x2="9" y2="22"/>
    <line x1="15" y1="11" x2="15" y2="22"/>
  </symbol>

  <symbol id="icon-alarm" viewBox="0 0 24 24" fill="none" stroke="currentColor" stroke-width="2" stroke-linecap="round" stroke-linejoin="round">
    <path d="M12 2L22 8V16H2V8L12 2Z"/>
    <circle cx="12" cy="12" r="3"/>
    <line x1="12" y1="2" x2="12" y2="9"/>
    <line x1="2" y1="16" x2="22" y2="16"/>
  </symbol>

  <symbol id="icon-wheelchair" viewBox="0 0 24 24" fill="none" stroke="currentColor" stroke-width="2" stroke-linecap="round" stroke-linejoin="round">
    <circle cx="12" cy="4" r="2"/>
    <path d="M10 8H14L16 14H20"/>
    <path d="M10 8L8 14H10"/>
    <circle cx="9" cy="19" r="3"/>
    <path d="M16 14C16 14 18 14 19 16"/>
  </symbol>

  <symbol id="icon-pets" viewBox="0 0 24 24" fill="none" stroke="currentColor" stroke-width="2" stroke-linecap="round" stroke-linejoin="round">
    <ellipse cx="12" cy="15" rx="6" ry="5"/>
    <ellipse cx="5" cy="9" rx="3" ry="4" transform="rotate(-15 5 9)"/>
    <ellipse cx="19" cy="9" rx="3" ry="4" transform="rotate(15 19 9)"/>
    <ellipse cx="4" cy="16" rx="2.5" ry="3" transform="rotate(-25 4 16)"/>
    <ellipse cx="20" cy="16" rx="2.5" ry="3" transform="rotate(25 20 16)"/>
  </symbol>

  <symbol id="icon-sofa" viewBox="0 0 24 24" fill="none" stroke="currentColor" stroke-width="2" stroke-linecap="round" stroke-linejoin="round">
    <rect x="2" y="11" width="20" height="8" rx="2"/>
    <rect x="4" y="7" width="6" height="7" rx="2"/>
    <rect x="14" y="7" width="6" height="7" rx="2"/>
    <line x1="4" y1="19" x2="4" y2="22"/>
    <line x1="20" y1="19" x2="20" y2="22"/>
  </symbol>

  <!-- Payments & tools -->
  <symbol id="icon-euro" viewBox="0 0 24 24" fill="none" stroke="currentColor" stroke-width="2" stroke-linecap="round">
    <circle cx="12" cy="12" r="10"/>
    <path d="M16 8C14.67 6.75 12.93 6 11 6C7.13 6 4 9.13 4 13C4 16.87 7.13 20 11 20C12.93 20 14.67 19.25 16 18"/>
    <line x1="2" y1="11" x2="12" y2="11"/>
    <line x1="2" y1="15" x2="12" y2="15"/>
  </symbol>

  <symbol id="icon-card" viewBox="0 0 24 24" fill="none" stroke="currentColor" stroke-width="2" stroke-linecap="round" stroke-linejoin="round">
    <rect x="2" y="5" width="20" height="14" rx="3"/>
    <line x1="2" y1="10" x2="22" y2="10"/>
    <line x1="6" y1="15" x2="10" y2="15"/>
  </symbol>

  <symbol id="icon-calculator" viewBox="0 0 24 24" fill="none" stroke="currentColor" stroke-width="2" stroke-linecap="round" stroke-linejoin="round">
    <rect x="4" y="2" width="16" height="20" rx="2"/>
    <rect x="7" y="5" width="10" height="4" rx="1"/>
    <circle cx="8" cy="13" r="1" fill="currentColor"/>
    <circle cx="12" cy="13" r="1" fill="currentColor"/>
    <circle cx="16" cy="13" r="1" fill="currentColor"/>
    <circle cx="8" cy="17" r="1" fill="currentColor"/>
    <circle cx="12" cy="17" r="1" fill="currentColor"/>
    <circle cx="16" cy="17" r="1" fill="currentColor"/>
  </symbol>

  <symbol id="icon-document" viewBox="0 0 24 24" fill="none" stroke="currentColor" stroke-width="2" stroke-linecap="round" stroke-linejoin="round">
    <path d="M14 2H6C5 2 4 3 4 4V20C4 21 5 22 6 22H18C19 22 20 21 20 20V8L14 2Z"/>
    <polyline points="14 2 14 8 20 8"/>
    <line x1="8" y1="13" x2="16" y2="13"/>
    <line x1="8" y1="17" x2="13" y2="17"/>
  </symbol>

  <symbol id="icon-key" viewBox="0 0 24 24" fill="none" stroke="currentColor" stroke-width="2" stroke-linecap="round" stroke-linejoin="round">
    <circle cx="8" cy="9" r="6"/>
    <line x1="13" y1="13" x2="22" y2="22"/>
    <line x1="18" y1="17" x2="18" y2="21"/>
    <line x1="20" y1="19" x2="16" y2="19"/>
  </symbol>

  <symbol id="icon-camera" viewBox="0 0 24 24" fill="none" stroke="currentColor" stroke-width="2" stroke-linecap="round" stroke-linejoin="round">
    <path d="M23 19C23 20.1 22.1 21 21 21H3C1.9 21 1 20.1 1 19V8C1 6.9 1.9 6 3 6H7L9 3H15L17 6H21C22.1 6 23 6.9 23 8V19Z"/>
    <circle cx="12" cy="13" r="4"/>
  </symbol>

  <symbol id="icon-upload" viewBox="0 0 24 24" fill="none" stroke="currentColor" stroke-width="2" stroke-linecap="round" stroke-linejoin="round">
    <polyline points="16 16 12 12 8 16"/>
    <line x1="12" y1="12" x2="12" y2="21"/>
    <path d="M20.39 18.39A5 5 0 0 0 18 9H16.74A8 8 0 1 0 3 16.3"/>
  </symbol>

  <symbol id="icon-approve" viewBox="0 0 24 24" fill="none" stroke="currentColor" stroke-width="2" stroke-linecap="round" stroke-linejoin="round">
    <path d="M22 11.08V12C22 17.52 17.52 22 12 22C6.48 22 2 17.52 2 12C2 6.48 6.48 2 12 2C13.85 2 15.58 2.5 17.07 3.38"/>
    <polyline points="22 4 12 14.01 9 11.01"/>
  </symbol>

  <symbol id="icon-reject" viewBox="0 0 24 24" fill="none" stroke="currentColor" stroke-width="2" stroke-linecap="round">
    <circle cx="12" cy="12" r="10"/>
    <line x1="8" y1="8" x2="16" y2="16"/>
    <line x1="16" y1="8" x2="8" y2="16"/>
  </symbol>

  <symbol id="icon-star" viewBox="0 0 24 24" fill="none" stroke="currentColor" stroke-width="2" stroke-linecap="round" stroke-linejoin="round">
    <polygon points="12 2 15.09 8.26 22 9.27 17 14.14 18.18 21.02 12 17.77 5.82 21.02 7 14.14 2 9.27 8.91 8.26 12 2"/>
  </symbol>

  <symbol id="icon-parking" viewBox="0 0 24 24" fill="none" stroke="currentColor" stroke-width="2" stroke-linecap="round" stroke-linejoin="round">
    <rect x="4" y="2" width="16" height="20" rx="2"/>
    <path d="M9 6H13C15.21 6 17 7.79 17 10C17 12.21 15.21 14 13 14H9V6Z"/>
    <line x1="9" y1="14" x2="9" y2="19"/>
  </symbol>

  <symbol id="icon-new-dev" viewBox="0 0 24 24" fill="none" stroke="currentColor" stroke-width="2" stroke-linecap="round" stroke-linejoin="round">
    <rect x="2" y="7" width="20" height="15" rx="1"/>
    <path d="M2 12L12 7L22 12"/>
    <line x1="9" y1="22" x2="9" y2="15"/>
    <line x1="15" y1="22" x2="15" y2="15"/>
    <line x1="9" y1="15" x2="15" y2="15"/>
    <line x1="12" y1="2" x2="12" y2="7"/>
    <line x1="9" y1="4.5" x2="15" y2="4.5"/>
  </symbol>

</svg>
